<?xml version="1.0" encoding="utf-8"?>
<!-- Generator: Adobe Illustrator 26.0.0, SVG Export Plug-In . SVG Version: 6.00 Build 0)  -->
<svg version="1.1" id="Capa_3" xmlns="http://www.w3.org/2000/svg" xmlns:xlink="http://www.w3.org/1999/xlink" x="0px" y="0px"
	 viewBox="0 0 400 400" style="enable-background:new 0 0 400 400;" xml:space="preserve">
<style type="text/css">
	.st0{fill:#0B090B;}
</style>
<g>
	<path class="st0" d="M304.35,98.44H99.53c-17.04,0-30.91,13.87-30.91,30.91v142.81c0,17.04,13.87,30.91,30.91,30.91h204.82
		c17.04,0,30.91-13.87,30.91-30.91V129.35C335.26,112.31,321.39,98.44,304.35,98.44z M334.26,272.16
		c0,16.49-13.42,29.91-29.91,29.91H99.53c-16.49,0-29.91-13.42-29.91-29.91V129.35c0-16.49,13.42-29.91,29.91-29.91h204.82
		c16.49,0,29.91,13.42,29.91,29.91V272.16z M304.35,98.44H99.53c-17.04,0-30.91,13.87-30.91,30.91v142.81
		c0,17.04,13.87,30.91,30.91,30.91h204.82c17.04,0,30.91-13.87,30.91-30.91V129.35C335.26,112.31,321.39,98.44,304.35,98.44z
		 M334.26,272.16c0,16.49-13.42,29.91-29.91,29.91H99.53c-16.49,0-29.91-13.42-29.91-29.91V129.35c0-16.49,13.42-29.91,29.91-29.91
		h204.82c16.49,0,29.91,13.42,29.91,29.91V272.16z M304.35,98.44H99.53c-17.04,0-30.91,13.87-30.91,30.91v142.81
		c0,17.04,13.87,30.91,30.91,30.91h204.82c17.04,0,30.91-13.87,30.91-30.91V129.35C335.26,112.31,321.39,98.44,304.35,98.44z
		 M334.26,272.16c0,16.49-13.42,29.91-29.91,29.91H99.53c-16.49,0-29.91-13.42-29.91-29.91V129.35c0-16.49,13.42-29.91,29.91-29.91
		h204.82c16.49,0,29.91,13.42,29.91,29.91V272.16z M304.35,98.44H99.53c-17.04,0-30.91,13.87-30.91,30.91v142.81
		c0,17.04,13.87,30.91,30.91,30.91h204.82c17.04,0,30.91-13.87,30.91-30.91V129.35C335.26,112.31,321.39,98.44,304.35,98.44z
		 M334.26,272.16c0,16.49-13.42,29.91-29.91,29.91H99.53c-16.49,0-29.91-13.42-29.91-29.91V129.35c0-16.49,13.42-29.91,29.91-29.91
		h204.82c16.49,0,29.91,13.42,29.91,29.91V272.16z M201.53,7.1C94.48,7.1,7.39,94.19,7.39,201.24s87.09,194.14,194.14,194.14
		s194.14-87.09,194.14-194.14S308.58,7.1,201.53,7.1z M201.53,394.38c-106.5,0-193.14-86.64-193.14-193.14S95.03,8.1,201.53,8.1
		s193.14,86.64,193.14,193.14S308.03,394.38,201.53,394.38z M304.35,98.44H99.53c-17.04,0-30.91,13.87-30.91,30.91v142.81
		c0,17.04,13.87,30.91,30.91,30.91h204.82c17.04,0,30.91-13.87,30.91-30.91V129.35C335.26,112.31,321.39,98.44,304.35,98.44z
		 M334.26,272.16c0,16.49-13.42,29.91-29.91,29.91H99.53c-16.49,0-29.91-13.42-29.91-29.91V129.35c0-16.49,13.42-29.91,29.91-29.91
		h204.82c16.49,0,29.91,13.42,29.91,29.91V272.16z M304.35,98.44H99.53c-17.04,0-30.91,13.87-30.91,30.91v142.81
		c0,17.04,13.87,30.91,30.91,30.91h204.82c17.04,0,30.91-13.87,30.91-30.91V129.35C335.26,112.31,321.39,98.44,304.35,98.44z
		 M334.26,272.16c0,16.49-13.42,29.91-29.91,29.91H99.53c-16.49,0-29.91-13.42-29.91-29.91V129.35c0-16.49,13.42-29.91,29.91-29.91
		h204.82c16.49,0,29.91,13.42,29.91,29.91V272.16z M304.35,98.44H99.53c-17.04,0-30.91,13.87-30.91,30.91v142.81
		c0,17.04,13.87,30.91,30.91,30.91h204.82c17.04,0,30.91-13.87,30.91-30.91V129.35C335.26,112.31,321.39,98.44,304.35,98.44z
		 M334.26,272.16c0,16.49-13.42,29.91-29.91,29.91H99.53c-16.49,0-29.91-13.42-29.91-29.91V129.35c0-16.49,13.42-29.91,29.91-29.91
		h204.82c16.49,0,29.91,13.42,29.91,29.91V272.16z"/>
	<path class="st0" d="M201.53,8.1C95.03,8.1,8.39,94.74,8.39,201.24s86.64,193.14,193.14,193.14s193.14-86.64,193.14-193.14
		S308.03,8.1,201.53,8.1z M335.26,272.16c0,17.04-13.87,30.91-30.91,30.91H99.53c-17.04,0-30.91-13.87-30.91-30.91V129.35
		c0-17.04,13.87-30.91,30.91-30.91h204.82c17.04,0,30.91,13.87,30.91,30.91V272.16z"/>
</g>
<g>
	<path class="st0" d="M303.56,156.98l-92.82,75.52c-2.98,2.43-7.2,2.48-10.24,0.12L100.33,154.6l-1-0.78v123.61h205.23V156.17
		L303.56,156.98z M303.56,276.43H100.33V155.86l99.55,77.55c1.68,1.3,3.68,1.95,5.67,1.95c2.06,0,4.12-0.7,5.83-2.08l92.18-75.01
		V276.43z"/>
	<path class="st0" d="M303.56,158.28v118.15H100.33V155.86l99.55,77.55c1.68,1.3,3.68,1.95,5.67,1.95c2.06,0,4.12-0.7,5.83-2.08
		L303.56,158.28z"/>
</g>
<g>
	<path class="st0" d="M109.27,122.89l1.26,1l93.49,74.12l0.31,0.25l94.98-74.37l1.28-1H109.27z M204.33,196.98l-92.18-73.09h185.54
		L204.33,196.98z"/>
	<polygon class="st0" points="297.69,123.89 204.33,196.98 112.15,123.89 	"/>
</g>
</svg>
