<?xml version="1.0" encoding="utf-8"?>
<!-- Generator: Adobe Illustrator 26.0.0, SVG Export Plug-In . SVG Version: 6.00 Build 0)  -->
<svg version="1.1" xmlns="http://www.w3.org/2000/svg" xmlns:xlink="http://www.w3.org/1999/xlink" x="0px" y="0px"
	 viewBox="0 0 400 400" style="enable-background:new 0 0 400 400;" xml:space="preserve">
<style type="text/css">
	.st0{fill:#C23334;}
</style>

<g id="Capa_2">
	<g>
		<path class="st0" d="M363.17,16.76H40.78c-15.02,0-27.24,12.22-27.24,27.24v322.39c0,15.02,12.22,27.24,27.24,27.24h322.39
			c15.02,0,27.24-12.22,27.24-27.24V44C390.41,28.98,378.19,16.76,363.17,16.76z M389.41,366.39c0,14.47-11.77,26.24-26.24,26.24
			H40.78c-14.47,0-26.24-11.77-26.24-26.24V44c0-14.47,11.77-26.24,26.24-26.24h322.39c14.47,0,26.24,11.77,26.24,26.24V366.39z"/>
		<path class="st0" d="M363.17,17.76H40.78c-14.47,0-26.24,11.77-26.24,26.24v322.39c0,14.47,11.77,26.24,26.24,26.24h322.39
			c14.47,0,26.24-11.77,26.24-26.24V44C389.41,29.53,377.64,17.76,363.17,17.76z M125.2,339.72H67.46V156.76h57.74V339.72z
			 M96.33,131.89c-18.32,0-33.22-14.9-33.22-33.22c0-18.31,14.9-33.21,33.22-33.21c18.31,0,33.21,14.9,33.21,33.21
			C129.54,116.99,114.64,131.89,96.33,131.89z M336.28,339.72h-56.21v-98.28c0-9.05-2.5-17.58-7.23-24.69
			c-5.61-8.43-16.06-17.43-33.94-12.39c-24.41,6.88-29.28,29.43-30.01,42.26v93.1h-53.82V156.76h53.82v23.25
			c22.79-30.15,65.13-26.45,65.55-26.41c31.97,4.57,47.08,23.42,54.13,38.42c7.63,16.24,7.71,31.61,7.71,31.76V339.72z"/>
	</g>
</g>
</svg>
