<?xml version="1.0" encoding="utf-8"?>
<!-- Generator: Adobe Illustrator 26.0.0, SVG Export Plug-In . SVG Version: 6.00 Build 0)  -->
<svg version="1.1" id="Capa_1" xmlns="http://www.w3.org/2000/svg" xmlns:xlink="http://www.w3.org/1999/xlink" x="0px" y="0px"
	 viewBox="0 0 400 400" style="enable-background:new 0 0 400 400;" xml:space="preserve">
<style type="text/css">
	.st0{fill:#D6E7E3;stroke:#070508;stroke-width:2;stroke-miterlimit:10;}
	.st1{fill:#FAFAFA;}
</style>
<g id="milk">
	<path class="st0" d="M293.13,369.38H104.86c-4.5,0-8.3-3.36-8.78-7.86L56.49,19.09c-0.6-5.26,3.52-9.87,8.78-9.87h269.45
		c5.31,0,9.44,4.66,8.78,9.92l-41.65,342.43C301.37,366.02,297.63,369.38,293.13,369.38z"/>
	<path class="st1" d="M274.04,338.26H124.38c-3.58,0-6.62-2.66-7-6.13L85.93,65.34c-0.49-4.12,2.77-7.7,7-7.7h214.19
		c4.23,0,7.54,3.63,7,7.75l-33.13,266.79C280.6,335.6,277.62,338.26,274.04,338.26z"/>
</g>
</svg>
