<?xml version="1.0" encoding="utf-8"?>
<!-- Generator: Adobe Illustrator 26.0.0, SVG Export Plug-In . SVG Version: 6.00 Build 0)  -->
<svg version="1.1" xmlns="http://www.w3.org/2000/svg" xmlns:xlink="http://www.w3.org/1999/xlink" x="0px" y="0px"
	 viewBox="0 0 629 469" style="enable-background:new 0 0 629 469;" xml:space="preserve">
<g id="tronco">
	<path id="shirt_00000151534041294146636870000007045800013627585438_" class="st0" d="M25,458c0,0,8.9-36,35-49
		c26-13,171-47,171-47s39.4,87.2,82,83c51-5,76-84,76-84s153,24,176,32s46,55,46,55S85,467,25,458z"/>
	<path id="color" class="st1" d="M242,313c0,0-6.8,40-4.9,44.5S276,435,307,439c0,0,35,9,73-73c1.1-2.5,1.2-5.3,1-8l-3-42
		c0,0-36.7,42.2-64.4,38.7c-2.3-0.3-4.6-0.6-6.9-0.8C297.4,353.1,270.3,347.8,242,313z"/>
	<g id="contorno_00000151545000890362053600000004557339763089193110_">
		<path class="st2" d="M240.5,306.5c0,0-5,23-8,51c0,0,36,75,72,84s82-63.8,80-84c-1.7-17.2-4-48-4-48"/>
		<path class="st2" d="M294.5,386c0,0,14.4,11.4,32.5,0"/>
		<path class="st2" d="M384.5,357.5l173,30c0,0,38,7,56,60"/>
		<path class="st2" d="M232.5,357.5L76,397.9c0,0-35.6,5.9-54.5,58.6"/>
	</g>
</g>
<g id="cara">
	<g id="face">
		<path class="st1" d="M425,229c0,0-2.9,39.9-16,33c0,0-1.6,0.4-3.7,0.7c-0.8,5.9-1.3,9.3-1.3,9.3s-51,74-93,76s-89-75-90-76
			c-0.4-0.4-1.3-4.4-2.3-9.4c-2.1-0.8-3.7-1.6-3.7-1.6c-13,7-15.1-30-15.1-30c-4.2-30.8-0.9-48,1.1-53c0.3-0.8,0.9-1.2,1-2
			c0.4-2.9,6.3,4.6,9.3,8.6L210,165c-7-152,97-139,97-139s63-7,92,41c14,23.2,15.6,71.9,13.6,116c1.6-2.5,6-8.9,8.4-8
			c0.8,0.3,2.7,3.2,3,4C425.6,183.8,429,198.2,425,229z"/>
		<path class="st2" d="M212.5,247.5c0,0,3,23,3,24s50.6,84.4,96.5,80c0.3,0,0.7,0,1,0c45.9,1.4,94.5-79,94.7-79.7
			c0.3-1,3.1-24,3.1-24"/>
		<path class="st2" d="M415.5,176.5c5-57.1-4.2-93.1-9.2-107.1c-2-5.6-5.1-10.6-9.2-14.8c-35.7-37-85.7-36-85.7-36
			s-48.7-0.6-84.4,36.4c-4.1,4.2-7.2,9.3-9.2,14.8c-4.9,14.1-15.5,48.7-10.5,105.8"/>
		<path class="st3" d="M410,178l3-4c2.9-11.4,1.7-104.2-19-119c-21-15-24-28.1-81.5-34c0,0-55.5,0-87.5,42c0,0-22,33-15,111l6,6
			c0,0,0.7-59,9-86.9c2-6.8,7.3-12.2,14.1-14.4c19.8-6.3,70.3-18.3,135.2-4.8c10.8,2.2,19.4,10.4,22.2,21.1
			C400.4,110,405.6,135.9,410,178z"/>
	</g>
	<g id="barba">
		<g id="ears">
			<g>
				<path class="st2" d="M210.5,179.5c0,0-17-31-15,33s19.1,51.3,19.1,51.3"/>
				<path class="st4" d="M213,226c0,0-7.9,2.4-8.2-7.3c-0.2-9.8,5.4-12.6,3.3-20.2"/>
			</g>
			<g>
				<path class="st2" d="M413,179.8c0,0,17.1-30.9,14.9,33.1s-19.2,51.3-19.2,51.3"/>
				<path class="st4" d="M412.9,227.2c0,0,8.8,2.7,9-8.1s-5.9-13.9-3.5-22.4"/>
			</g>
		</g>
		<path class="st5" d="M219,241c0,0,22.4,56.4,63,68s69-4,69-4s52.1-43.9,55-69l4-2l-3.7,24.4L405,270c0,0-39,69-83,78
			c-0.6,0.1-11,1.2-12,1c-5-1-26.7,7.9-78-57l-14-21l-3-23l-1-6L219,241z"/>
		<path class="st5" d="M260,253c0,0,50.8,5.7,104.4-3.1c0,0-23.6-14.2-36.5-18.6c0,0-15.1,1.8-32.5,0.2c0,0-23.4,18.4-36.4,21.4"/>
		<path class="st5" d="M293,289c1.1,0,18,4,39,0l2,5c0,0-18,7-41-0.6V289z"/>
	</g>
	<g id="nouse">
		<path class="st4" d="M334,222.8c-29.9,16.5-50.5-2.8-40.3-16.5c12.7-17,14.5-41.3,14.5-41.3"/>
	</g>
</g>
<g id="Capa_3">
	<g id="mouth">
		<path id="contorno_00000060750665315055583680000007946617844518469311_" class="st6" d="M314,259.8c-13.3,0.5-45,1.6-45,1.6
			s-2.8,0.6-1.3,2.8c1.5,2.2,17.3,18.8,48.5,17.6c31.3-0.1,44.2-18.6,45.5-20.9c1.3-2.3-1.5-2.7-1.5-2.7s-32.2,1-44.8,1.5
			C314.9,259.7,314.5,259.7,314,259.8z"/>
		<path id="teeth_00000046324239024064018330000006678983019322864027_" class="st7" d="M274,262c0,0,3.9,6.3,5,7.8
			s55.6,5.6,73.4-3.8c0,0,2.4-1.5,1.6-6"/>
	</g>
	<g id="muecas">
		<path class="st4" d="M262,228.7c0,0.8-5.7,7.4-9.8,8.2s-8.2,11.5-4.9,15.6"/>
		<path class="st4" d="M368,227.3c0,0.8,5.9,7.6,10,8.4c4.2,0.9,8.4,11.8,5,16"/>
		<path class="st4" d="M230,234c0,0-1,11.4,1.5,15.7S233,260,233,260"/>
		<path class="st4" d="M392.5,222.6c0,0,2.5,7.4,2.5,12.4s1,12,1,12"/>
	</g>
</g>
<g id="Capa_4">
	<g id="eyes">
		<circle id="left_x5F_eye_00000027597442445781628690000018065185549978422963_" class="st4" cx="361.5" cy="164.5" r="7.5"/>
		<path id="ojera_x5F_derecha_00000094604031004091567610000003344970393415569584_" class="st4" d="M355,181c0,0,11,2,16-1"/>
		<circle id="right_x5F_eye_00000134955824980668161740000016970653252971285654_" class="st4" cx="262" cy="165" r="7"/>
		<path id="ojera_x5F_izquierda_00000052088808962879531910000008289062860679913357_" class="st4" d="M255,183c0,0,11,2,16-1"/>
	</g>
</g>
<g id="Capa_5">
	<g id="cejas">
		<path id="ceja_x5F_derecha" class="st5" d="M282.7,139.7c1.2,0.3,2.4,0,3.2-1c1.2-1.5,2.2-4-1.6-6.5c-6-4-46.8-10.9-56.6,15.2
			c-0.1,0.3-0.1,0.7,0.1,1l0,0c0.7,1.1,2.2,1.3,3.2,0.4C236.5,144.1,254.5,131.4,282.7,139.7z"/>
		<path id="ceja_x5F_izquierda" class="st5" d="M343.3,136.6c-1.1,0.3-2.3,0-3-0.8c-1.3-1.5-2.6-4.2,1.5-6.9
			c6.1-4.1,47.9-11,57.9,15.7c0.1,0.4,0.1,0.7-0.1,1.1l-0.7,1c-0.4,0.6-1.2,0.7-1.7,0.2C392.8,142.8,373.9,127.6,343.3,136.6z"/>
	</g>
</g>
</svg>
