<?xml version="1.0" encoding="utf-8"?>
<!-- Generator: Adobe Illustrator 26.0.0, SVG Export Plug-In . SVG Version: 6.00 Build 0)  -->
<svg version="1.1" id="Capa_1" xmlns="http://www.w3.org/2000/svg" xmlns:xlink="http://www.w3.org/1999/xlink" x="0px" y="0px"
	 viewBox="0 0 800 800" style="enable-background:new 0 0 800 800;" xml:space="preserve">
<style type="text/css">
	.st0{fill:#010002;}
	.st1{fill:#F2C4C4;}
</style>
<g id="desktop">
	<path class="st0" d="M275.3,516c-1.9-7.9-9.1-13.9-17.7-13.9c-8.6,0-15.7,5.9-17.7,13.9c-0.3,1.4-0.5,2.8-0.5,4.3
		c0,10,8.2,18.2,18.2,18.2c10.1,0,18.2-8.2,18.2-18.2C275.8,518.8,275.6,517.3,275.3,516z M275.3,516c-1.9-7.9-9.1-13.9-17.7-13.9
		c-8.6,0-15.7,5.9-17.7,13.9c-0.3,1.4-0.5,2.8-0.5,4.3c0,10,8.2,18.2,18.2,18.2c10.1,0,18.2-8.2,18.2-18.2
		C275.8,518.8,275.6,517.3,275.3,516z M501.2,191.4C495,184.4,486,180,476,180H34.1c-4.4,0-8.7,0.8-12.5,2.4
		C8.9,187.4,0,199.7,0,214.2v314c0,18.9,15.2,34.2,34.1,34.3h169.5c0,0,7.4,68.5-51.4,68.5v34.2h205.6v-34.3
		c-61,0-51.4-68.5-51.4-68.5h169.5c18.8,0,34-15.3,34-34.2V214.3C509.9,205.5,506.6,197.4,501.2,191.4z M36.4,216.4h437v264.7h-437
		V216.4z M257.2,549.9c-16.2,0-29.4-13.1-29.4-29.4c0-1.5,0.1-3.1,0.4-4.5c2.2-14.1,14.4-24.9,29-24.9c14.6,0,26.8,10.8,29,24.9
		c0.2,1.5,0.3,3,0.3,4.5C286.6,536.7,273.5,549.9,257.2,549.9z M257.6,502.1c-8.6,0-15.7,5.9-17.7,13.9c-0.3,1.4-0.5,2.8-0.5,4.3
		c0,10,8.2,18.2,18.2,18.2c10.1,0,18.2-8.2,18.2-18.2c0-1.5-0.2-3-0.5-4.3C273.3,508,266.2,502.1,257.6,502.1z M678.2,449.8
		c-27,0-48.8,21.9-48.8,48.8c0,27,21.8,48.8,48.8,48.8c26.9,0,48.7-21.8,48.7-48.8C726.9,471.7,705,449.8,678.2,449.8z M678.1,529.7
		c-17.3,0-31.2-13.9-31.2-31.1c0-17.2,14-31.2,31.2-31.2c17.3,0,31.2,14,31.2,31.2C709.3,515.8,695.3,529.7,678.1,529.7z
		 M599.7,323.8v23.4h151.9v-23.4H599.7z M599.7,347.2h151.9v-23.4H599.7V347.2z M599.7,308.6h151.9v-23.5H599.7V308.6z M599.7,246.3
		v23.5h151.9v-23.5H599.7z M751.5,178.7H599.9v51.7h151.6V178.7z M678.2,449.8c-27,0-48.8,21.9-48.8,48.8c0,27,21.8,48.8,48.8,48.8
		c26.9,0,48.7-21.8,48.7-48.8C726.9,471.7,705,449.8,678.2,449.8z M678.1,529.7c-17.3,0-31.2-13.9-31.2-31.1
		c0-17.2,14-31.2,31.2-31.2c17.3,0,31.2,14,31.2,31.2C709.3,515.8,695.3,529.7,678.1,529.7z M784.9,108H566.5
		c-8.4,0-15.1,6.8-15.1,15.1v553.8c0,8.3,6.8,15.1,15.1,15.1h218.4c8.3,0,15.1-6.8,15.1-15.1V123.1C800,114.8,793.2,108,784.9,108z
		 M769.8,661.9H581.5V138.2h188.3V661.9z M751.6,323.8H599.7v23.4h151.9V323.8z M751.6,285.1H599.7v23.5h151.9V285.1z M751.6,246.3
		H599.7v23.5h151.9V246.3z M751.5,178.7H599.9v51.7h151.6V178.7z M678.2,449.8c-27,0-48.8,21.9-48.8,48.8c0,27,21.8,48.8,48.8,48.8
		c26.9,0,48.7-21.8,48.7-48.8C726.9,471.7,705,449.8,678.2,449.8z M678.1,529.7c-17.3,0-31.2-13.9-31.2-31.1
		c0-17.2,14-31.2,31.2-31.2c17.3,0,31.2,14,31.2,31.2C709.3,515.8,695.3,529.7,678.1,529.7z M599.9,178.7v51.7h151.6v-51.7H599.9z
		 M599.7,285.1v23.5h151.9v-23.5H599.7z M599.7,246.3v23.5h151.9v-23.5H599.7z"/>
	<rect id="screen" x="36.4" y="216.4" class="st1" width="437" height="264.7"/>
</g>
<g id="lines">
	<rect id="l7" x="77.8" y="419.1" class="st0" width="316.5" height="6"/>
	<rect id="l6" x="80.3" y="387.7" class="st0" width="171" height="6"/>
	<rect id="l5" x="80.3" y="357.5" class="st0" width="316.5" height="6"/>
	<rect id="l4" x="80.3" y="332.3" class="st0" width="266.9" height="6"/>
	<rect id="l3" x="80.3" y="309.2" class="st0" width="317.8" height="6"/>
	<rect id="l2" x="80.3" y="283.6" class="st0" width="279.7" height="6"/>
	<rect id="l1" x="80.3" y="258" class="st0" width="328.4" height="6"/>
</g>
</svg>
