<?xml version="1.0" encoding="utf-8"?>
<!-- Generator: Adobe Illustrator 26.0.0, SVG Export Plug-In . SVG Version: 6.00 Build 0)  -->
<svg version="1.1" xmlns="http://www.w3.org/2000/svg" xmlns:xlink="http://www.w3.org/1999/xlink" x="0px" y="0px"
	 viewBox="0 0 944.5 625.2" style="enable-background:new 0 0 944.5 625.2;" xml:space="preserve">
<g id="e4">
	<path d="M804.9,433.4c-4.5,1.3-4.3,0.3-3,15.7c1,11.4,0.5,13.1-4.8,15.9l-4.3,2.3l-4.4-2c-2.5-1.1-7.3-4.3-10.7-7.1
		c-3.4-2.9-6.8-5.2-7.6-5.2c-1.6,0-8.7,7.1-8.7,8.8c0,0.7,2.2,4.1,5,7.5c8.2,10.1,9.7,15.1,6.3,20.8c-2.8,4.7-7.5,5.6-19.1,3.7
		c-5.3-0.9-10-1.3-10.4-0.9c-0.9,0.8-3.7,11.4-3.2,12.2c0.2,0.3,4.2,2.1,9,3.9c10.4,4.1,15.4,8.3,15.4,12.9c0,6.9-4,10.5-16.5,15.2
		c-8.6,3.1-8.5,3-6.7,10l1.5,6.1l5.1-0.6c18.6-2.4,21.7-2.1,24.6,2.7c1.1,1.8,2,4.6,2,6.3c0,3.3-4.3,10.7-9.6,16.7
		c-1.9,2-3.4,4.3-3.4,5c0,0.7,2,3.2,4.4,5.6l4.4,4.3l6.9-5.5c7.7-6.1,12.2-8.7,15.4-8.7c3.3,0,8.8,3.9,9.5,6.7
		c0.7,2.5-0.1,16.1-1.2,21.9c-0.6,3-0.5,3.1,5.5,4.8c3.4,0.9,6.5,1.5,7,1.2c0.4-0.3,2-3.9,3.5-8c1.6-4.2,4.1-9.4,5.7-11.6
		c2.8-3.8,3.2-4,8.4-4c5,0,5.6,0.3,8,3.5c1.5,1.9,4.1,7.1,5.9,11.7c3.7,9.2,3.7,9.2,12.5,6.8c4.1-1.1,4.3-1.3,3.7-4.3
		c-1.1-5.9-1.9-19.5-1.2-22c0.7-2.8,6.2-6.7,9.5-6.7c3.2,0,7.7,2.6,15.5,8.8l6.8,5.5l4.9-4.9l4.9-4.9l-4.1-5
		c-9.9-11.9-11.7-17-7.9-23.2c2.9-4.8,6-5.1,24.6-2.7l5.1,0.6l1.2-4.8c0.7-2.7,1.4-5.6,1.7-6.5c0.4-1.3-1.6-2.5-9-5.3
		c-13.4-5.2-17.6-10.3-14.6-18c1.2-3.1,6.3-6.4,15.8-10.1c4-1.6,7.5-3.2,7.7-3.6c0.7-1.1-3-12.4-4-12.4c-0.6,0-5.2,0.6-10.3,1.4
		c-7.1,1.1-10.1,1.1-13,0.3c-4.1-1.3-7.2-5.6-7.2-10c0-3.3,3.6-9.6,8.9-16c2.3-2.7,4.1-5.5,4.1-6.4c0-1.5-7.3-8.8-8.8-8.8
		c-0.4,0-4.1,2.7-8.2,6c-4.1,3.4-9.1,6.6-11.1,7.2c-3.2,0.9-4.2,0.8-7.8-1.3c-5.1-2.8-5.6-4.6-4.7-15.8c0.4-4.7,0.8-9.9,0.9-11.5
		c0.2-2.6-0.2-3-4.3-4.2c-5.4-1.6-9-1.8-9-0.4c0,2.9-6.3,16.9-8.9,19.8c-2.5,2.7-3.7,3.2-7.4,3.2c-3.4,0-5-0.6-7-2.5
		c-2.7-2.8-6.8-10.8-8.8-17.3C813.9,431.5,812.4,431.1,804.9,433.4z M844.6,480c20.9,6.4,34.4,27.9,30.9,49.4
		c-3,18.4-15.7,32.4-33.8,37.1c-30.5,7.9-60.3-18.9-55.4-50C790.6,488.8,817.9,471.7,844.6,480z"/>
	<path d="M820.9,493.8c-12.6,4.3-20.4,15.3-20.5,28.8c0,8.2,2.3,14.4,7.6,20.3c6.4,7.2,13.9,10.6,22.9,10.5c9.4,0,16-3,22.4-10
		c6.4-7,8.5-13.1,7.9-22.8C859.9,500.3,840.1,487.2,820.9,493.8z"/>
</g>
<g id="e1">
	<path d="M167.9,193.2c-13.8,3.4-20.5,5.9-20.5,7.6c0,0.9,1.2,7.5,2.6,14.7c1.8,8.9,2.7,16.6,2.8,24.5c0.2,15.7-1,18.2-10.9,23.8
		c-4,2.3-8.1,4.2-9.2,4.2c-8,0-20.3-7.4-37.7-22.8c-8.6-7.5-10.9-9.1-12.3-8.3c-1,0.5-6.2,5.4-11.6,11c-6.7,6.7-9.6,10.4-9.1,11.3
		c0.4,0.7,4.1,5,8.2,9.5c14.2,15.5,23.2,30.3,23.2,38c0,1.4-1.9,5.8-4.2,9.9c-3.4,6-4.9,7.6-8,8.9c-8.4,3.3-20.7,2.9-42.7-1.6
		c-14.3-2.9-13.4-3.3-16.5,6.8c-3.7,12.3-5.2,20.1-4.1,21.1c0.6,0.5,6,2.6,12,4.6c13,4.5,28,11.4,32.9,15.1
		c6.1,4.6,7.6,8.1,7.6,17.6v8.3l-5.4,5.2c-6.3,6.2-16.2,11.1-34.8,17.5c-14.8,5.1-14,3.8-10.4,18c2.6,10.3,5.1,16.9,6.3,16.9
		c0.4,0,6.4-1.1,13.3-2.5c17.1-3.4,33.8-4.2,40.5-1.8c4.5,1.6,5.3,2.5,9.3,9.3c3.8,6.4,4.3,8,3.9,11.7c-0.9,8.4-8,19.6-23.9,37.6
		c-3.7,4.3-6.8,8.5-6.8,9.3c0,1.8,19.4,21.4,21.2,21.4c0.7,0,4.5-2.8,8.3-6.2c19.2-16.9,31.9-24.8,39.8-24.8c5.8,0,17.4,7,19.5,11.8
		c2.6,5.9,2.1,22.7-1.2,40.5c-1.5,8.2-2.4,15.3-2,15.7c2.6,2.4,28.1,8.8,29.4,7.3c0.4-0.4,2.8-6.9,5.5-14.3
		c7.4-20.9,13.5-32,19.9-35.9c4.8-3,17.4-3,22.2,0c6.4,3.9,12.5,15,20,35.9c2.6,7.4,5.1,13.9,5.5,14.3c1.2,1.5,26.7-4.9,29.3-7.3
		c0.4-0.4-0.5-7.5-2-15.7c-3.3-17.7-3.8-34.6-1.3-40.4c2.2-4.7,14-11.9,19.6-11.9c7.9,0,20.6,7.9,39.8,24.8c3.9,3.4,7.6,6.2,8.3,6.2
		c1.8,0,21.2-19.5,21.2-21.4c0-0.8-3.8-5.8-8.5-11.3c-15.3-17.6-22.6-29.8-22.4-37.6c0-1.9,1.8-6,4.3-10.2c3.7-6.3,4.7-7.2,9.1-8.8
		c6.7-2.4,23.4-1.6,40.5,1.8c6.9,1.4,12.9,2.5,13.3,2.5c1.2,0,3.7-6.6,6.3-16.9c3.6-14.2,4.4-12.9-10.4-18
		c-22.6-7.8-34.9-14.8-38.7-22.2c-2.2-4.2-2-16.6,0.4-20.2c4.5-6.9,17.5-14,38.6-21.3c6.1-2,11.4-4.1,12-4.6c1.1-1-0.4-8.8-4.1-21.1
		c-3.1-10.1-2.2-9.7-16.5-6.8c-22,4.5-34.3,4.9-42.7,1.6c-3.1-1.3-4.6-2.9-8-8.9c-2.3-4.1-4.2-8.7-4.2-10.2
		c0.1-7.4,7.3-19.4,21.5-35.9c4.3-5,8.5-9.8,9.3-10.7c1.3-1.5,0.4-2.7-8.4-11.8c-5.5-5.6-10.7-10.6-11.7-11.1
		c-1.4-0.8-3,0.2-8.5,5.2c-16.5,15.1-30.2,24.2-38.6,25.4c-4,0.6-5.2,0.3-11.9-3.5c-8.5-4.9-10.4-7.7-11.4-17
		c-0.6-6.5,0.9-20.6,3.8-34.9c1-5.1,1.9-10.1,1.9-11c0-1.9-2.4-2.9-16-6.6c-15-4-13.8-4.6-18.9,10.5c-5.9,17.7-11.8,29.4-17.6,35
		l-4.6,4.5h-9.4h-9.4l-4.6-4.5c-5.7-5.5-11-15.9-17.3-34c-4.6-13.1-4.8-13.5-7.7-13.7C173.2,192.2,170.1,192.6,167.9,193.2z
		 M232.9,293.9c37.3,7.7,65.8,35.4,75.2,72.7c2.7,10.7,2.4,34.3-0.6,45.4c-9.3,35-35.2,60.6-70.9,70.2c-10,2.6-32.2,3-42.7,0.6
		c-16.3-3.7-30.8-11-43.3-21.8c-9.8-8.4-17.1-18.1-23.2-30.5c-7.2-14.6-9.4-24.6-9.4-42.5c0-20.2,3.2-32.1,13.3-49.5
		c6-10.3,20.8-25.4,31.4-31.9C183.4,293.7,209.5,289,232.9,293.9z"/>
	<path d="M195.4,324.3c-11.1,3.3-20.4,8.9-28.5,17.2c-8,8.1-12.5,15.2-16.3,25.7c-2.5,6.6-2.7,8.5-2.6,21.3c0,13.1,0.2,14.5,3.1,22
		c6.8,18.1,17.7,30,34.5,38c18,8.6,38.6,8.6,56.6,0c16.8-8,27.6-19.9,34.6-38c2.9-7.5,3-8.8,3.1-22c0-12.7-0.3-14.7-2.7-21.3
		c-3.8-10.6-8.3-17.7-16.3-25.8c-8.2-8.3-17.6-13.9-28.9-17.1C221.3,321.2,206.1,321.2,195.4,324.3z"/>
</g>
<g id="e2">
	<path d="M432.4,22.6c-4.7,1.4-8.9,2.9-9.4,3.4c-0.6,0.6,0,5.9,1.4,13.7c2.7,14.5,3.1,26.1,1.2,31.5c-1.1,3-2.6,4.5-7.3,7.3
		c-3.6,2.1-7.3,3.5-9.3,3.5c-5.3,0-14.5-5.3-26.7-15.5c-6.3-5.2-12-9.5-12.6-9.5c-1.7,0-14.5,12.2-16.2,15.3c-1.3,2.4-1,2.9,5,9.9
		c9.6,11,12.6,15,15.9,21.3c3.9,7.5,3.9,11.9-0.1,19c-4.3,7.6-8.2,9-22.7,8.2c-5.9-0.4-14.7-1.6-19.7-2.6c-6.9-1.5-9.3-1.7-10.2-0.8
		c-1.4,1.5-6.6,20.2-6.1,22.3c0.2,1,5.2,3.4,13.7,6.4c14.4,5.3,22.9,9.8,26.7,14.3c2.1,2.5,2.4,3.9,2.4,10.9v8.1l-4,3.8
		c-4.6,4.4-14.2,9.1-28.4,14c-5.4,1.9-10,3.9-10.3,4.6c-0.6,1.5,4.4,21.2,5.7,22.8c0.7,0.8,4.4,0.5,13.7-1.1
		c14-2.5,26.9-2.9,32.2-1.1c2.6,0.9,4.4,2.7,6.8,6.7c6.3,10.4,3.9,17.6-12.8,37.2c-4.9,5.7-8.8,10.9-8.9,11.6
		c0,1.7,15.5,17.2,17.2,17.2c0.8,0,5.3-3.3,10-7.4c14.3-12.2,23.1-17.5,29.5-17.6c1.9,0,5.7,1.4,9.2,3.5c4.7,2.8,6.2,4.3,7.2,7.3
		c1.9,5.4,1.5,18.1-1.1,31.4c-1.2,6.5-2,12.4-1.7,13.1c0.5,1.4,12.9,5.4,19.9,6.3l4.3,0.6l3.4-9.9c5.2-15.1,10.4-25.5,15.1-29.6
		c3.9-3.6,4.3-3.7,11.5-3.7c6.8,0,7.7,0.2,10.8,3c4.4,3.8,9.3,13.4,14.7,28.2c4.9,13.5,3.9,12.9,16.1,9.8c12-3.1,13.2-3.8,12.4-7.4
		c-4.7-22.8-5.4-36.8-2.4-43.1c1.6-3.4,11.2-9.4,15-9.5c6.9-0.1,16.6,5.7,31.2,18.4l8.8,7.7l4.7-4.3c8.8-8,13.7-13.8,12.6-15.3
		c-0.5-0.7-4.8-6-9.6-11.7c-9.3-10.9-14.2-19-15.2-24.8c-0.5-2.8,0-4.7,2.7-9.5c4.9-8.8,7.2-9.8,22.2-9.1c6.6,0.3,16.1,1.4,21,2.5
		c5,1.1,9.4,1.6,9.8,1.1c1.2-1.1,5.6-16.5,5.9-20.7l0.3-3.5l-11-3.9c-14.7-5.2-24.3-10-28.5-14.4c-3.4-3.5-3.5-3.8-3.5-11.5
		c0-7.6,0.1-8,3.4-11.4c4.6-4.7,13.3-9.2,27.6-14.2l12-4.2l-0.3-3.5c-0.3-4.2-4.7-19.6-5.9-20.7c-0.4-0.4-6.6,0.3-13.8,1.7
		c-15.1,2.8-29.4,2.9-33.7,0.1c-1.4-0.9-4-4.5-5.8-8.1l-3.3-6.4l1.7-5.3c2.2-6.8,6.4-13.1,16.6-25c4.4-5.2,8-9.7,8-10.1
		c0-1.3-16.3-16.9-17.7-16.9c-0.8,0-5.1,3.2-9.6,7.1c-14.2,12.3-23.8,18-30.6,17.9c-3.8-0.1-13.4-6.1-15-9.5c-2.5-5.1-2.5-15,0-29
		c3.3-19.1,3.7-17.5-5.1-20.2c-7.3-2.2-17-4-17-3.1c0,0.2-2,5.9-4.4,12.5c-5.6,15.3-10,23.6-14.5,27.4c-3.2,2.6-4.3,2.9-10.8,2.9
		c-6.9,0-7.5-0.2-11.2-3.5c-4.5-4.1-10.1-15.1-15.2-29.8c-3.2-9.4-3.4-9.7-6.4-9.6C442.3,20.1,437.1,21.2,432.4,22.6z M492,103.1
		c24.3,4.5,46.2,21.8,56.8,45.1c5.2,11.3,7,19.6,7,32.8c0,14-1.9,22-7.9,34.5c-13.3,27.6-40.4,44.5-71,44.5c-22.9,0-39.5-7-56-23.5
		c-10.5-10.4-15.3-18.1-19.7-31.5c-2.9-8.8-3.2-10.5-3.2-23.5c0-15.3,1.2-21.7,6.4-33.1c10.3-22.8,32.6-40.5,57.1-45.3
		C467.9,101.8,485.1,101.8,492,103.1z"/>
	<path d="M465.4,127.6c-18.2,3.9-33.9,17.5-40.2,34.9c-2.6,7.5-3.6,22.4-1.8,30.4c4,18.2,19.3,34.7,37.5,40.3
		c10.1,3.2,23.5,3,33.1-0.4c38.9-13.7,50-61.5,21-90.4C501.5,128.9,483.8,123.6,465.4,127.6z"/>
</g>
<g id="e3">
	<path d="M656.6,219.4c-4.5,1.3-8.5,2.5-8.8,2.9c-0.3,0.3,0.2,4.1,1.1,8.4c0.9,4.3,1.9,11.7,2.2,16.4c0.8,11.5-0.5,15.2-6.5,19
		c-8.6,5.4-15.3,3.3-31.2-10.1c-5.2-4.4-9.7-8-10-8c-0.3,0-3.9,3.3-7.9,7.4l-7.4,7.4l6.7,7.9c8.5,9.9,13,16.7,14.6,21.9
		c1.1,3.7,1,4.5-1.4,9.2c-1.4,2.8-3.7,5.9-5,6.7c-3.7,2.5-11.3,2.8-22.6,1c-5.8-0.9-12.1-1.9-14.1-2.2l-3.5-0.5l-2.2,7.3
		c-3.9,13.3-4.2,12.5,7.3,16.8c13.6,5.1,19.6,8.3,23.3,12.6c2.7,3,3.2,4.4,3.2,8.7c0,6.6-2.4,10.4-9.2,14.5
		c-4.2,2.5-15.7,7.2-26.6,10.8c-1.4,0.5-1.2,2,2.1,13.4l2.1,7.3l3.5-0.5c2-0.3,8.3-1.3,14.1-2.2c12.7-2,20.2-1.4,23.5,2
		c4.1,4,6.7,10.2,5.9,14.1c-0.8,4.4-7,14.1-14.5,22.6c-3.3,3.6-5.9,7.3-5.9,8.1c0,1.4,12.6,14.7,13.9,14.7c0.4,0,4.3-3,8.7-6.8
		c16.9-14.3,23.4-16.6,31.9-11.7c3.1,1.8,5.2,4,6.1,6.1c2,4.7,1.7,14.6-0.6,26.6c-1.1,5.7-2,10.6-2,11c0,0.9,10.9,4.3,16.6,5.2
		l4.1,0.7l3.2-9.3c4.1-11.5,9.6-22.3,12.9-24.8c1.9-1.5,4-2,9.2-2c6.7,0,6.8,0.1,10.5,4.1c4,4.4,7.8,12.2,11.4,22.9
		c3.3,10.1,2.6,9.7,12.8,7.1c4.8-1.2,9.3-2.7,10-3.4c0.8-0.9,0.7-3.5-0.8-10.7c-2-10.4-2.5-23.4-0.9-27.4c1.3-3.5,9.5-8.6,13.7-8.6
		c5,0,12.3,4.1,22.8,13c5.2,4.4,9.8,8,10.2,8c0.5,0,4.2-3.3,8.2-7.4l7.4-7.4l-4.5-4.9c-10.8-11.6-17.8-22.7-17.8-28.1
		c0-3.2,4.7-10.9,7.8-13c3.5-2.3,15.6-2.2,28.5,0.2c6.2,1.2,10.2,1.5,10.8,0.9c1.3-1.3,4.9-14.1,4.9-17.4c0-2.2-0.7-2.8-5.6-4.3
		c-11.8-3.7-22.4-8.8-26.4-12.7c-3.9-3.8-4-4.1-4-10.4c0-6,0.2-6.7,3.5-9.9c3.8-3.9,11.9-7.9,24.2-12.2c7.6-2.6,8.3-3.1,8.3-5.5
		c0-3-3.7-15.9-5-17.2c-0.4-0.5-6.3,0.1-13,1.2c-20.5,3.5-25.5,2.6-30.7-5.4c-1.8-2.7-3.3-6.1-3.3-7.6c0-4.3,5.6-13.9,13.5-23.3
		c4.1-4.8,7.5-9.3,7.5-10c0-0.6-3.1-4.3-7-8.1l-7-6.9l-2.4,1.9c-21.2,17.3-24.6,19.5-30.5,19.5c-3.7,0-9.8-2.9-12.6-6
		c-2.9-3.2-3.2-16.3-0.7-29.8c1.8-9.7,1.8-10.3,0.2-11.2c-1.9-1-15.9-5-17.6-5c-0.6,0-2.8,4.6-4.9,10.2
		c-4.9,13.3-7.7,18.8-11.5,22.7c-2.9,2.9-3.7,3.1-9.9,3.1c-5.3,0-7.4-0.5-9.3-2c-3.3-2.5-8.8-13.3-12.8-24.8
		c-2.4-6.6-3.7-9.2-4.9-9.1C665.6,217.1,661.2,218.2,656.6,219.4z M709.8,288c12.3,3.1,20.9,8.1,30.6,17.9
		c13.6,13.6,19.4,27.6,19.4,46.6c0,11.8-1.9,19.8-7.2,30.5c-4.9,10.1-17.7,23.1-27.7,28.2c-12.7,6.4-16.5,7.3-32,7.3
		c-13.2-0.1-14.5-0.2-22-3.1c-13.3-5.1-22.5-11.8-30.2-21.9c-25.9-34-14.8-81.6,23.6-100.9C677.2,286,695.1,284.2,709.8,288z"/>
	<path d="M678.9,309.1c-15.4,5.4-25.9,16.9-30,32.6c-3.7,14.2,0.2,29.9,10.4,41.4c14.6,16.6,40.7,19.9,59.5,7.4
		c29.5-19.6,26.2-63.9-6.1-79.2c-7.1-3.5-8.6-3.8-17.8-4.1C686.8,307,683.8,307.4,678.9,309.1z"/>
</g>
</svg>
