<?xml version="1.0" encoding="utf-8"?>
<!-- Generator: Adobe Illustrator 26.0.0, SVG Export Plug-In . SVG Version: 6.00 Build 0)  -->
<svg version="1.1" id="Capa_1" xmlns="http://www.w3.org/2000/svg" xmlns:xlink="http://www.w3.org/1999/xlink" x="0px" y="0px"
	 viewBox="0 0 400 400" style="enable-background:new 0 0 400 400;" xml:space="preserve">
<style type="text/css">
	.st0{fill:#63ABA2;}
	.st1{display:none;}
	.st2{display:inline;}
	.st3{fill:none;stroke:#F42121;stroke-width:30;stroke-miterlimit:10;}
</style>
<g id="color">
	<path class="st0" d="M184.4,172.2l-50.5,94.5c-5.8-0.7-11.8-0.3-17.6,1.4c-11,3.2-20.3,10.5-25.7,20.5l-1,1.8l-26,46.7
		c-3.5,6.4-5.4,13.4-5.4,20.5l-1.4-203.2l15.7-7.2l4.4,2.2c5.4-0.6,19.1,2.1,24.7,1.8c4-0.2-18.9,1.3-14.8,1.3h2.7
		C123.1,152.8,155.2,159.8,184.4,172.2z"/>
	<path class="st0" d="M312.2,386c0,1.8,0,3.5-0.1,5.2L88,386.5c3.2-0.1,22.1-20.8,25.3-21.8c10.3-3,21.2-26.5,26.3-35.9l4.9-26.4
		l5-12.7c5.1-9.4-0.1-1.4-3.1-11.7c-1.6-5.5,1.9,0.3-1.7-3.9l58.1-88c56,33.3,94.6,93.7,106,160.9v0.3c0.2,0.9,0.3,1.8,0.5,2.7
		c0.6,4,1.2,8,1.5,12c0.5,5,0.9,10,1.1,15.1C312.2,380.1,312.2,383.1,312.2,386z"/>
</g>
<g id="Capa_2_00000173863647197766885920000015043892409661606578_" class="st1">
	<g id="contorno" class="st2">
		<path d="M340,388.1v1.3l0,0h-14.4h-14.7c0.1-1.8,0.1-3.5,0.1-5.2c0-2.9,0-5.9-0.1-8.8c-0.2-5.1-0.5-10.1-1.1-15.1
			c-0.4-4-0.9-8-1.6-12l-13.9-111.2l-13.5-108.7L271.4,53l-7.5-48.1h30.8L310,128.4l26.4,212.4l0,0v0.1c1.8,10.9,3,22.1,3.5,33.4
			v0.1v6.8L340,388.1z"/>
		<path d="M340,388.1v1.3h-0.1l-14.4,0.1h-14.7c0.1-1.8,0.1-3.5,0.1-5.2c0-2.9-0.1-5.9-0.2-8.8c-0.2-5.1-0.5-10.1-1.1-15.1
			c-0.4-4-0.9-8-1.5-12l-0.1-0.7l0,0c-0.1-0.7-0.2-1.4-0.4-2v-0.3c-11.3-67.2-51.8-123.9-107.8-157.2l-26-13.2l0,0
			c-27.2-11.7-57.1-18.4-88.5-18.7h-2.5c-3.8,0-7.6,0.1-11.3,0.3c-5.1,0.2-10.2,0.7-15.3,1.3V142l-0.1-13.5
			c4.6-0.5,9.3-0.8,13.9-1.1c4.2-0.2,8.5-0.3,12.8-0.3c9,0,17.8,0.4,26.5,1.4c27.6,2.8,53.8,9.9,78.1,20.6l0,0c0,0,0,0,0.1,0l0,0
			l25.9,13.3c32.1,18.8,59.6,44.3,80.7,74.7c0,0,0,0,0,0.1c27.4,51.6,41.7,102,42.2,103.6l0,0v0.1c1.9,10.9,3,22.1,3.5,33.4v0.1v6.8
			L340,388.1z"/>
		<polygon points="294.7,4.9 271.4,53 231.5,128.5 213.5,162.4 199.9,188.2 170.8,243.2 152.4,278 126.8,264 137.8,243.2 173.9,175 
			187.6,149.1 198.5,128.5 263.9,4.9 		"/>
		<path d="M160.2,292.7c-1.6-5.5-4.3-10.4-7.9-14.7l-25.6-14c-5.4-0.7-11-0.3-16.4,1.3c-10.3,3-18.9,9.9-24,19.3l-0.9,1.7l-24.2,44
			c-3.3,6-5,12.6-5,19.3c0,0.4,0,0.9,0,1.4c0,0.3,0,0.6,0.1,0.9c0.1,3.1,0.6,6.1,1.5,9.1c2.5,8.4,7.5,15.7,14.4,20.8
			c1.5,1.2,3.2,2.3,4.8,3.2c1.4,0.8,2.9,1.5,4.4,2.1c4.3,1.8,8.9,2.7,13.5,2.9c0.5,0.1,0.9,0.1,1.4,0.1s1,0,1.5-0.1H98
			c3.2-0.1,6.5-0.6,9.7-1.6c1.2-0.4,2.5-0.8,3.7-1.3c3.4-1.3,6.5-3.1,9.3-5.3c4.5-3.4,8.2-7.7,11-12.7l4.6-8.3l20.5-37.4
			C162,313.9,163.2,303,160.2,292.7z M131.4,309.3l-25.1,45.6c-1.4,2.6-3.8,4.5-6.7,5.3c-0.9,0.2-1.9,0.4-2.9,0.4
			c-1.9,0-3.8-0.4-5.6-1.4c-2.6-1.4-4.5-3.8-5.3-6.7c-0.3-1-0.4-2.1-0.4-3.1c0-1.8,0.4-3.6,1.4-5.3l25.1-45.7
			c1.4-2.6,3.8-4.5,6.7-5.3c1-0.3,2-0.4,3.1-0.4c1.8,0,3.7,0.5,5.3,1.4c2.6,1.5,4.5,3.8,5.3,6.6
			C133.1,303.7,132.8,306.7,131.4,309.3z"/>
	</g>
</g>
<g id="contornos">
	<line class="st3" x1="279.3" y1="13.9" x2="137" y2="278"/>
	<line class="st3" x1="326.9" y1="389.5" x2="281" y2="4.9"/>
	<path class="st3" d="M56.2,142c267.4-10.8,270.7,247.5,270.7,247.5"/>
	<path class="st3" d="M134.7,280.7L134.7,280.7c-11.8-6.9-27-3-34,8.9l-26.4,45c-6.9,11.8-3,27,8.9,34l0,0c11.8,6.9,27,3,34-8.9
		l26.4-45C150.5,302.8,146.6,287.6,134.7,280.7z"/>
</g>
</svg>
