<?xml version="1.0" encoding="utf-8"?>
<!-- Generator: Adobe Illustrator 26.0.0, SVG Export Plug-In . SVG Version: 6.00 Build 0)  -->
<svg version="1.1" xmlns="http://www.w3.org/2000/svg" xmlns:xlink="http://www.w3.org/1999/xlink" x="0px" y="0px"
	 viewBox="0 0 866 834" style="enable-background:new 0 0 866 834;" xml:space="preserve">
<style type="text/css">
	.st0{fill:none;}
	.st1{fill:#4E3620;}
	.st2{fill:#F8F4E1;}
	.st3{fill:#EAE6D6;}
	.st4{fill:#77756F;}
	.st5{fill:#A09E98;}
	.st6{fill:#66BAAF;}
	.st7{fill:none;stroke:#4E3620;stroke-width:3;stroke-linecap:round;stroke-miterlimit:10;}
	.st8{fill:#4E3620;stroke:#4E3620;stroke-width:3;stroke-linecap:round;stroke-miterlimit:10;}
</style>
<g id="table">
	<line class="st0" x1="857.71" y1="557.5" x2="846.02" y2="599.36"/>
	<path class="st1" d="M440.25,656.82c1.68,9.84-4.47,15.68-4.47,15.68c14.65,40.95-54.89,35.41-54.89,35.41
		c-44.67,13.51-62.8,11.65-62.8,11.65c156.82,115.89,471.05,88.93,471.05,88.93l48.36-224.8c0,0-49.58-3.82-63.26-7.2L746.21,677
		c0,0,3.72,6.21-0.71,12.84l-3,11.33l-161.61-15.35c0,0-7.71,22.32-9.95,23.55c0,0-37.68,19.45-89.55-2.46
		c0,0-6.87-15.13-8.89-24.71c0,0-31.61-23.59-32.11-25.88C439.89,654.02,440.25,656.82,440.25,656.82z"/>
	<path class="st1" d="M448.97,639.18c-0.06,0.06,12.75,10.06,16.77,2.77c0,0-5.45-42.79-4.11-45.84c0,0-4.28,2.57-10.98-10.12
		c0,0-2.73-3.66-9.12-5.17c0,0,4.98,13-0.83,22.33C440.7,603.16,472.15,615.75,448.97,639.18z"/>
</g>
<g id="body">
	<g>
		<path class="st2" d="M422,541.83c-0.36-0.86-1.49-1.16-2.39-0.91s-1.61,0.91-2.29,1.55c-2.16,2.06-4.27,4.18-6.51,6.15
			c-9.87,8.68-22.02,14.27-33.97,19.74c11.58-1.61,22.61-2.24,34.15-0.35c1.47,0.24,3.77-0.45,5.19-0.92
			c2.33-0.78,3.51-3.29,4.74-5.41c1.65-2.85,3.85-5.47,4.68-8.66c1.02-3.94-0.38-8.4-3.48-11.04"/>
	</g>
	<path class="st2" d="M159,290c0,0-9,8-1,9s12-1,21-12c0,0,0-8,37-26c0,0,14-15,27-5c0,0,0,4-4,2c0,0-10-4-20,6l-27,16
		c0,0,14-4,25-5c0,0,8-7,17-4c0,0,1,3-1.5,3.5c0,0-6.5-2.5-18.5,7.5c0,0-3,2-4-1c0,0-26,5-26,6c0,0-7,7-4,25c0,0,2,12,13,13
		c0,0,7-1,4-9s0,0,0,0s-3-4-4-4c0,0-2,4-4,3c0,0-2,0-1-3c0,0,5-5,6-11c0,0,0.22-2,3.61-1.5s14.19-0.21,16.29-1.86
		c0,0,1.1-0.64,2.1,0.36s47,25,55,26c0,0,28,9,40,15c0,0,2,1,2,2c0,0,50,89,84,198c0,0,0,2-4,0l-36-92c0,0-31,4-77,56l102,57
		c0,0,19.24-6.63,31.12-21.82c0,0,12.36-9.18,16.62,6.32c0,0,2.98,8.5-1.38,15.5c0,0,14.97-2.03,31.3,1.98L459,543c0,0,0-8,27-11
		c0,0-7.93-72-143.47-227.5c0,0-6.53-14.5-34.53-27.5c0,0-52.94-29.83-59.47-38.91c0,0-5.53-15.09-40.53,4.91
		C208,243,194,252,159,290"/>
	<path class="st2" d="M202,304c0,3-3,7-3,7c0-1-3.29-2.72-3.29-2.72S198,304,198,303l4,0.29V304z"/>
	<path class="st2" d="M199,327c0,0,7,9,12,3c0,0,5-4-8-17l-2,2C201,315,204,324,199,327z"/>
	<path class="st2" d="M214.5,301.81L218,304c0,0-10,2-10,5c0,0-2,2,4,7c0,0,2,1,2,4l-9-11c0,0,1-3,1-5
		C206,304,213,302.62,214.5,301.81z"/>
	<path class="st2" d="M92.55,809.47C92.55,809.47,193,757,231,724c0,0,16-13,64-9c0,0,34,2,83-12c0,0,38,1.85,50.5-11.07
		c0,0,7.5-7.93,1.5-17.93c0,0-22.71,4-48.86,1c0,0-1.14-2.59,2.36-3.8c0,0,45.5,1.8,49.5-3.2c0,0,4.88-4.8,1.94-16.4l-6.44-6.48
		c0,0-34.5-1.12-37.5-5.12c0,0,0-3,2-3c0,0,47,0,51-1c0,0,9-2.14,9-15.07c0,0-1-9.93-16-13.93c0,0-42,2-52-5c0,0,1-4,3-3
		c0,0,37,7,49,2c0,0,9-20-9-27c0,0-52-7-91,2c0,0-15,4-24,12s-22.76,22-55.88,34.5c0,0-87.12,35.5-107.12,42.5
		c0,0-87,35.62-125,35.31l0.91,109.16H92.55z"/>
	<path class="st2" d="M67,280c0,0,76.62,88.91,110.31,98.96c0,0,24.69,6.04,8.69-27.96c0,0-2-2-2,20c0,0-3,4-5,0
		c0,0-0.59-33,8.2-42.5c0,0-16.2-7.5-12.2-29.5c0,0-10.83,10.11-22.42,3.05c0,0-6.58-5.05,1.42-14.05c0,0,21-20,33-34
		c0,0,16-18,46-25c0,0,12-2,17,5c0,0,3,4,17,13c0,0,3-9,3-14c0,0-4.15,1.26-5.07-0.37c-0.93-1.63,0.48-3.55,3.76-3.89
		c0,0,4.13-1.52,10.2,0.19c0,0,9.08,0.31,7.88-8.47c0,0-0.45-5.42-5.06-13c0,0-8.36-27.58-6.96-34.99c0,0,6.07-5.15,9.12-10.26
		c0,0,2.98-0.28,2.53,2.86l-1.91,2.51c0,0,4.18,1.04,5.71-2.09c0,0,1.16-1.47,0.22-4.83c0,0,4.25-50.43-18.89-79.84
		c0,0-44.83-56.91-109.9-55.23l-80.72,97.38l-4.14,29.74c0,0,15.98,68.87,9.95,87.76C86.73,240.47,80.19,266.03,67,280z"/>
	<path class="st2" d="M278.14,174.45v1.05c0,0,1.71-0.42,2.12-0.84c0,0,0.75-0.66,0.39-2.87
		C280.65,171.8,278.29,174.39,278.14,174.45z"/>
</g>
<g id="head">
	<g>
		<path class="st3" d="M85,242c3.17-23.26,1.33-44.4-5-67"/>
	</g>
	<g>
		<path class="st3" d="M85,242c-0.46,0.94,1.44,2.52,2.36,3.55c0.67,0.74,1.97,1.59,2.93,1.87c2.53,0.73,5.09,1.48,7.72,1.61
			c2.59,0.13,5.29-0.4,7.36-1.96c2.38-1.8,3.6-4.7,4.66-7.48c3.45-9.05,6.23-18.35,8.32-27.81L120,205
			c-3.4,1.73-5.99,0.11-9.13-2.09c-2.9-2.03-5.39-4.59-7.29-7.58C99.04,188.2,95.51,183.89,92,176c-4.1-9.21-6.13-15.99-5-26
			s3.77-16.86,14-18c9-1,14.34,1,21,7c14.14,12.74,23.77,28.34,24.51,47.36c0.08,2.06,0.18,4.38,2.04,5.57
			c1.85,1.18,4.31,0.53,5.67-1.19c2.55-3.22,1.69-7.18,1.5-10.92c-0.66-13,7.06-24.82,15.04-35.09
			c7.98-10.28,16.86-20.72,19.19-33.52c1.52-8.33,0.19-17.38,4.05-24.92c3.93-7.66,12.62-12,21.19-12.8
			c8.57-0.8,17.13,1.4,25.36,3.94c8.23,2.54,16.44,5.47,25.02,6.17l0.73-0.42c0.53,2.02,4.06-0.33,4.19-2.42
			c0,0-57.55-69.62-127.75-54.32c-2.6,0.57,2.63-0.38,0,0c-12.89,1.87-60.11,9.34-69.51,50.87c0,0-9.17,50.96,0.38,71.82
			C73.61,149.12,93.4,224.67,85,242z"/>
	</g>
</g>
<g id="computer">
	<g>
		<path class="st4" d="M733,673c19.88-71.68,70.05-264.43,88-328c-3.99,15.4,9.91-15.24,5,4c-15.39,60.31-68.85,264.01-84.38,323.77
			"/>
	</g>
	<g>
		<path class="st4" d="M789.14,484.44c2.24-8.63,4.47-17.25,6.71-25.88c-0.83,5.04-2.23,10.01-3.62,14.94
			C791.2,477.15,790.17,480.79,789.14,484.44z"/>
	</g>
	<g>
		<path class="st4" d="M812.01,396.19c-5.39,20.79-10.77,41.58-16.16,62.37c0.46-2.81,0.75-5.63,0.76-8.48
			c0.03-7.44-1.77-15.28,1.27-22.07L812.01,396.19z"/>
	</g>
	<ellipse class="st4" cx="736.5" cy="683" rx="6.5" ry="6"/>
	<path class="st5" d="M586.5,664.42c0,0,8.74-46.42,4.12-96.92L753,579l-27,98L586.5,664.42z"/>
	<path class="st4" d="M585,670l-2.76,10.5c0,0,139.64,13.5,155.7,15.5l1.06-3c0,0-12,4-14-10L585,670z"/>
</g>
<g id="shirt__x26__coffee">
	<path class="st6" d="M583,545c0,5.25-30.04,9-57.23,9c-27.19,0-57.77-3.75-57.77-9s30.59-10,57.77-10
		C552.96,535,583,539.75,583,545z"/>
	<path class="st6" d="M464,551c0,0,50,23,120.7,0c0,0,6.3,116-17.7,154c0,0-31,16-81-2C486,703,468,676,464,551z"/>
	<path class="st6" d="M466,648c0,0,4,23,5,27c0,0-26-20-39-33l12.05-0.92C444.05,641.08,459,654,466,648z"/>
	<path class="st6" d="M460,567l1,24c0,0-1.08,0.72-4.54-4.64S450,577.42,439,575.71c0,0-5-6.71-18-6.71l3.46-3.07
		C424.46,565.93,435,562,460,567z"/>
	<path class="st6" d="M269.12,808.5c0,0,24.88-34.5,25.88-50.5c0,0-16.88-21.76-18.76-37.26c-0.09-0.71-0.72-1.22-1.43-1.17
		C268.26,720,238.47,723.03,216,743c-27,24-98,57-116,68L269.12,808.5z"/>
	<path class="st6" d="M25,296.45c0,0,20-2.45,38-13.45c0,0,70.31,88.29,111,99s13-40,13-40l5-12l3-1c0,0,8.83,11.7,16.91,5.85
		c0,0,5.41-5.47,4.25-7.66c0,0,37.84,1.81,133.84,102.81l5,11c0,0-43,15-76,53c0,0,0-56-4-62s-6,4-6,4s13.3,97.85-18.44,159.29
		c-2.53,4.89-4.13,10.24-4.32,15.74c-0.12,3.34,0.26,6.71,1.76,8.96c0,0-172,72.98-223,73.49V296.45z"/>
</g>
<g id="contorno">
	<ellipse class="st7" cx="524" cy="544.5" rx="62.5" ry="13"/>
	<path class="st7" d="M483.5,705.5c-21-39-22-161-22-161"/>
	<path class="st7" d="M586.5,543.5c0,0,11,113-17,164c0,0-32.96,18-85.48-2"/>
	<path class="st7" d="M368.5,569.5c0,0,34-14,41-23s13.71-13,18.36,0s-12.36,24-12.36,24"/>
	<path class="st7" d="M393.5,639.5c0,0,47,0,52-1s23-22-7-34"/>
	<path class="st7" d="M393.5,639.5c0,0,31,4,35,3"/>
	<path class="st7" d="M383.5,673.5c0,0,38,1,48-2s6-21,6-21"/>
	<path class="st7" d="M426.14,639.5c0,0,34.36,34,47.36,40"/>
	<path class="st7" d="M467.5,643.5c0,0-4.21,10-21.61-4"/>
	<path class="st7" d="M460.5,564.68c0,0-23-5.18-37-1.18"/>
	<path class="st7" d="M437.5,578.5c0,0,10.59-1.07,16.3,8.96c5.7,10.04,8.95,5.97,8.95,5.97"/>
	<path class="st7" d="M25,698.32c0,0,51.5-2.82,165.5-51.82c0,0,55-21,80-32c14.32-6.3,28.32-17.2,37.66-25.36
		c9.71-8.48,21.56-14.19,34.27-16.31c40.22-6.72,86.23-0.77,86.23-0.77c21.16,8.56,9.84,31.44,9.84,31.44c-15,5-51-2-51-2"/>
	<path class="st7" d="M98.57,809.47c0,0,94.93-49.97,114.93-67.97s37-27,78-24s89-12,89-12s68,3,52-33"/>
	<path class="st7" d="M743.5,688.5l-3,9.82l-161.41-15.15"/>
	<line class="st7" x1="583.5" y1="667.5" x2="727.5" y2="680.5"/>
	<line class="st7" x1="736.5" y1="674.5" x2="818.5" y2="343.5"/>
	<path class="st7" d="M588.5,564.5l169,12c0,0,2-3,4-4s57-229,57-229l10-11h4l-9,11l-80,334"/>
	<path class="st7" d="M756.93,578.47"/>
	<path class="st7" d="M212.5,238.5c31-16,37-2,37-2s25,21,56,36s39,29,39,29c147,171,144.48,230,144.48,230"/>
	<path class="st7" d="M275.5,503.5c0,0,23.1,14.97,105.55,58.48"/>
	<path class="st7" d="M214.5,299.5c0,0,50,27,57,28c6.77,0.97,20.08,4.74,37.22,13.12c1.17,0.57,2.13,1.49,2.76,2.63
		c5.55,10.01,33.7,61.9,57.02,125.43c26,70.82,26.86,69.51,26.86,69.51"/>
	<path class="st7" d="M257.5,229.5c0,0-18,0-3-19"/>
	<path class="st7" d="M274.5,226.5c0,0-7.09-4-14.05,0"/>
	<path class="st7" d="M266.5,231.5c0,0,5-3,12-1c0,0,19,2,5-24c0,0-8-26-7-33"/>
	<path class="st7" d="M250.5,180.5"/>
	<path class="st7" d="M25,293.37c9.5,0.87,40.5-14.87,40.5-14.87c28.33-27.62,16.53-88.87,7.23-122.24
		c-6-21.54-8.66-40.04-4.96-62.08c7.72-46.03,22.99-56.96,67.26-68.62C190.41,10.96,237.5,44.5,267.48,72.01
		s25.02,88.49,25.02,88.49"/>
	<path class="st7" d="M131.73,195.29c0,0-4.7,1.79-4.7,5.38s-8.08,7.18-17.05,0.9c-8.97-6.28-17.95-21.54-22.44-38.59
		c-4.49-17.05,9.87-43.08,32.31-24.23c0,0,5.38,4.49,8.08,7.18"/>
	<path class="st7" d="M127.93,183.62c0,0-8.08,0.9-9.87-1.79s-8.97-4.49-11.67-5.38c0,0-8.08-1.79-6.28-18.85"/>
	<path class="st7" d="M106.4,163.88c0,0,8.97-10.77,15.26-8.08"/>
	<path class="st7" d="M101.91,138.75c0,0,17.85-3.12,20.59,20.87"/>
	<path class="st7" d="M127.04,180.93c0,0,0-0.9-0.9-2.69s-2.26-4.34-1.13-7.56"/>
	<path class="st7" d="M284.5,164.5c0,0-6,8-8,9"/>
	<path class="st7" d="M352.5,428.5c0,0-89-101-139-104"/>
	<path class="st7" d="M189.5,328.5c0,0-10,23-8,42"/>
	<path class="st7" d="M185.37,345.47c0,0,22.13,34.03-3.87,37.03S63.7,279.4,63.7,279.4"/>
	<path class="st7" d="M272.5,434.5c0,0,15,95-21,169c0,0-4,9,0,19"/>
	<path class="st7" d="M787.5,812.5c0,0-315,25-477-93"/>
	<path class="st7" d="M641.5,821.5"/>
	<path class="st7" d="M297.5,756.5c-18-23-19-39-19-39"/>
	<ellipse class="st7" cx="736.5" cy="682.95" rx="9" ry="8.55"/>
	<line class="st7" x1="757.5" y1="576.5" x2="727.5" y2="680.5"/>
	<path class="st7" d="M229.5,186.5c0,0,10,4,21,1"/>
	<path class="st7" d="M277.5,178.5c0,0,0.44-1.44,1.99-1.66c1.65-0.23,2.86-1.69,2.94-3.35c0.07-1.32-0.13-2.76-0.93-3.99"/>
	<path class="st7" d="M283.5,169.5c0,0,11,2,9-9"/>
	<path class="st8" d="M219.61,159.53c-1.04-1.09-0.16-1.43,0.85-1.53c1.61-0.15,3.21-0.33,4.8-0.62
		c22.82-4.18,46.79,3.12,46.79,3.12c2.54,6-6.75,4.57-6.75,4.57s-32.8-1.57-45.8-5.57"/>
	<path class="st7" d="M272.5,230.5c0,0-1,10-4,18"/>
	<path class="st7" d="M181.5,286.5c0,0-8,19-26,15c0,0-9-5,3-14c0,0,12.38-12.38,29.66-31.02c5.9-6.37,12.74-11.81,20.35-16
		c1.53-0.84,2.92-1.55,3.99-1.97"/>
	<path class="st7" d="M217.5,262.5c0,0-33,18-36,24"/>
	<path class="st7" d="M221.5,239.5c0,0,5-7,17-1"/>
	<path class="st7" d="M217.5,262.5c0,0,11-11,23-6"/>
	<path class="st7" d="M200.01,260.5"/>
	<path class="st7" d="M203.5,310.5c0,0,19.08,17.34,5.55,22.96c-2.21,0.92-4.73,0.47-6.52-1.11c-1.44-1.26-4.23-3.15-6.03-5.85"/>
	<path class="st7" d="M223.5,304.5c0,0-11,2-14,5"/>
	<path class="st7" d="M209.5,309.5c0,0-1,2,3,4c0,0,6,3,2,11"/>
	<path class="st7" d="M272.5,808.5c4,0,28-47,25-52"/>
	<polyline class="st7" points="832.5,332.5 769.5,584.5 743.84,676.1 	"/>
	<line class="st7" x1="823.5" y1="343.5" x2="818.5" y2="343.5"/>
	<path class="st7" d="M204.03,302.05c0,0-0.53,9.45-5.53,12.45"/>
	<path class="st7" d="M196.5,301.2c0,0,14,1.3,18-1.7"/>
	<path class="st7" d="M189.5,313.5c0,0,6.81-8.04,6.41-12.02"/>
	<path class="st7" d="M193.82,309.5c0,0,4.68,3,5.68,7c0.93,3.73,0.1,6.28-1.03,7.97c-1.57,2.33-4.54,3.21-7.25,2.47
		c-10.4-2.83-13.72-14.44-13.72-14.44s-2-25,7-28c0.11-0.04,0.22-0.07,0.34-0.11c9.22-3,31.66-7.41,31.66-7.41s-10,7.52,0,0.52
		s16-5,16-5"/>
	<path class="st7" d="M275.5,503.5c0,0,45-53,83-60"/>
	<path class="st7" d="M761.49,573.64c-31.77-2.36-74.09-4.67-128.99-6.14"/>
	<path class="st7" d="M837.5,581.5c0,0-14.88-2.94-64.83-6.99"/>
</g>
</svg>
