<?xml version="1.0" encoding="utf-8"?>
<!-- Generator: Adobe Illustrator 26.0.0, SVG Export Plug-In . SVG Version: 6.00 Build 0)  -->
<svg version="1.1" xmlns="http://www.w3.org/2000/svg" xmlns:xlink="http://www.w3.org/1999/xlink" x="0px" y="0px"
	 viewBox="0 0 866 834" style="enable-background:new 0 0 866 834;" xml:space="preserve">
<style type="text/css">
	.st0{fill:#F8F4E1;}
	.st1{fill:#EAE6D6;}
	.st2{fill:#A09E98;}
	.st3{fill:#77756F;}
	.st4{fill:#66BAAF;}
	.st5{fill:#42877B;}
	.st6{fill:#4E3620;}
	.st7{fill:none;stroke:#4E3620;stroke-width:3;stroke-linecap:round;stroke-miterlimit:10;}
	.st8{fill:#4E3620;stroke:#4E3620;stroke-width:3;stroke-linecap:round;stroke-miterlimit:10;}
</style>
<g id="body">
	<g>
		<path class="st0" d="M79,163c-12.69-35.66-6.78-44.51-1.61-82.01c1.44-10.44,3.84-21.33,10.89-29.15
			c6.73-7.46,16.68-11.02,26.35-13.77c13.34-3.8,27.61-7.31,41.37-9.07c9.61-1.23,18.72-1.22,28.33,0.04
			C208.86,32.25,216.36,35.96,236,51l12,9c17,11,28.55,23.81,34,40s7.24,29.93,8,47c0.11,2.54,1.09,15.7,0,18
			c-0.91,1.92-5.24-4.04-7-2c-3.16,3.66-4.3,5.3-7,8c-2,2-1.23,5.21-1,8c0.5,6.06,2.45,12.78,4,19c1.44,5.75,3.39,11.02,6,16
			c1.68,3.21,2.42,10.3,0,13c-2.33,2.6-9.64,0.06-13,1c-3.42,0.96-1,1.6-2,5s-1,8-3,14l-16-12c-5.87-9.79-24.13-4.72-26-4
			c-13,5-10,4-21,10c-12.05,6.57-22.03,19.89-32,29c-6.37,5.82-5.23,4.39-11,11c-3.35,3.83-12.18,13.05-11,18
			c1.1,4.62,6.25,5.98,11,6s9.7-2.98,14-5c-3,14,2.34,19.34,10,27c4,4-3.98,10.68-3,16c0.8,4.33,4.9,13.13,7,17s3.15,11.16,1,15
			c-2.19,3.9-8.63,4.98-13,4s-29.48-19.23-33-22c-34.47-27.15-46.01-44.97-76-77c20.51-25.54,22.12-59.31,17-92"/>
	</g>
	<g>
		<path class="st0" d="M19.58,809.28c25.47,2.48,51.84,4.86,76.08-3.34c11.84-4,22.7-10.4,33.39-16.87
			c30.31-18.34,60.04-37.66,89.12-57.9l-11.1,5.9c15.84-9.56,32.16-19.3,50.39-22.46c15.01-2.6,30.38-0.56,45.61-0.69
			c17.64-0.14,35.12-3.18,52.5-6.21c19.19-3.34,38.38-6.69,57.57-10.03c6.69-1.17,14.68-3.46,16.4-10.03
			c1.09-4.16-0.9-8.51-0.69-12.81c0.39-8.05,8.28-16.19,4.04-23.06c-3.05-4.95-10.07-4.88-15.88-5.06
			c-10.46-0.31-20.84-3.33-29.82-8.7c14.7-0.62,29.4-1.25,44.1-1.87c4.94-0.21,10.08-0.48,14.39-2.89
			c4.31-2.42,7.45-7.69,5.77-12.34c-2.26-6.25-11.11-7.54-14.37-13.33c-4.3-7.64,3.42-18.4-1.6-25.58
			c-5.26-7.52-18.65-3.04-24.99-9.67c6.02-6.05,11.27-9.47,14.54-17.36l0,0c1-4-1.44-14.14-5-14s-7.42,7.2-9.93,9.73
			c-9.65,9.74-33.59,19.74-47.07,22.27c-16,3-17.58,0.76-32,6c-17.79,6.46-32.77,22.86-48.4,33.52
			c-26.09,17.8-55.78,29.48-85.24,40.89c-56.92,22.05-114.45,43.75-174.58,54.26"/>
	</g>
	<g>
		<path class="st0" d="M279.55,263.28c-17.32-5.96-27.73-27.59-46.03-28.27c-7.64-0.28-14.84,3.37-21.36,7.35
			C191.33,255.06,171.84,271.9,158,292c-0.78,1.14-1.23,3.64-1,5c0.32,1.95,3.73,2.07,5.66,1.64c1.93-0.42,5.9-1.29,7.34-2.64
			c6.86-6.46,5.14-5.54,12-12c1.98,7.93,2.01,0.08,0,8c-1.85,7.29-3.01,20.4,2,26c4.01,4.49,15,8,22,13c2.09,1.49,5.04-1.43,5-4
			c-0.03-1.98,2.92-7.06,2-10c-0.69-2.2-5.26-3.54-5-5c0.87-4.82,4.63-6.79,9-9c4.13-2.09,5.73-1.8,10,0s9.03,4.61,13,7
			c18.61,11.19,48.42,15.77,67,27c19.02,11.49,25.12,27.29,33.16,48.01C348.21,405.73,353,426,363,446l-4,1
			c-28.4,9.23-53.68,27.58-73.7,49.72c-1.29,1.43-2.12,4.15-1.83,6.06c0.2,1.32,0.36,2.61,1.53,3.23c33.51,17.66,64.49,35.34,98,53
			c8.79-2.83,23.5-11.07,26.39-17.28c1.92-4.12,5.99-6.84,10.53-6.48c12.84,1.02,11.44,15.15,9.09,24.76c8.82-0.27,21.18,0.27,30,0
			c1.22-8.38-2.7-14.8,1-19s7.84-5.84,13-8s11.25-1.46,12-7c0.46-3.4-3.6-17.86-5-21c-28.29-63.32-66.01-113.01-109.29-167.2
			c-13.24-16.59-27.22-32.75-43.66-46.18c-16.67-13.63-35.76-24.31-56.1-31.39"/>
	</g>
</g>
<g id="head">
	<g>
		<path class="st1" d="M80,175c-10.56-29.08-10.92-69.39-9-79c1-5,3.04-17.8,4-24c1.12-7.26,8.91-17.19,13-22
			c11.57-13.6,35.38-20.08,53-23c24.71-4.09,46.19-1.9,69.19,8.01C224.17,41.04,238.3,49.27,250,59c6.5,5.41,10.5,10.59,17,16
			c1.61,1.34,3.66,4.87,3.53,6.96c-0.13,2.09-3.68,3.23-4.22,1.21l-0.73,0.42c-8.58-0.71-16.8-3.63-25.02-6.17
			c-8.23-2.54-16.78-4.74-25.36-3.94c-8.57,0.8-17.26,5.14-21.19,12.8c-3.86,7.54-2.53,16.59-4.05,24.92
			c-2.33,12.8-11.21,23.24-19.19,33.52c-7.98,10.28-15.7,22.1-15.04,35.09c0.15,3.05,0.76,6.24-0.41,9.07
			c-1.17,2.82-5.13,4.71-7.33,2.59c-1.31-1.26-1.4-3.3-1.47-5.12c-0.74-19.02-10.37-34.61-24.51-47.36c-6.66-6-12-8-21-7
			c-10.23,1.14-12.87,7.99-14,18s0.9,16.79,5,26c3.62,8.13,7.26,12.46,12,20c2,3.18,3.91,4.85,7,7s5.65,3.71,9,2l-1.65,6.79
			c-2.09,9.46-4.87,18.76-8.32,27.81c-1.06,2.78-2.29,5.68-4.66,7.48c-2.06,1.56-4.77,2.09-7.36,1.96s-5.1-0.85-7.59-1.58
			c-1.03-0.3-2.14-0.65-2.75-1.53c-0.68-0.98-2.83-2.75-2.67-3.93C88.17,218.74,86.33,197.6,80,175"/>
	</g>
</g>
<g id="computer">
	<g>
		<path class="st2" d="M591.71,569.81c51.62,3.59,99.68,5.6,151.29,9.19c1.03,0.07,5.18,0.37,6,1c1.85,1.42,2.62,7.75,2,10
			c-8,29-18.68,57.08-25,87c-45.06-2.78-94.25-6.06-139-12c1-29,6.49-48.24,5-71c-0.58-8.82,1.22-17.36-0.26-26.08"/>
	</g>
	<g>
		<path class="st3" d="M586,671c-0.7,2.5-1.3,5.5-2,8c47.44,4.28,91.7,10.37,143,15c2.44,0.22,8.6,0.52,11,0s1.38-4.06,2.45-6.27
			c1.07-2.21,0.46-5.27-1.69-6.46c-1.72-0.95-3.89-0.54-5.64,0.33c-1.76,0.87-3.29,2.15-5.06,3c-4.17,2.01-9.07,1.41-13.66,0.79
			c-42.16-5.7-85.93-10.81-128.4-13.39V671z"/>
	</g>
	<g>
		<path class="st3" d="M797.88,428.01c-3.04,6.8-1.24,14.64-1.27,22.08c-0.03,7.97-2.21,15.75-4.38,23.42
			c-19.94,70.61-39.88,141.22-59.82,211.83l4.49,0.7c25.04-96.61,50.07-193.22,75.11-289.84L797.88,428.01z"/>
	</g>
</g>
<g id="shirt__x26__coffee">
	<g>
		<path class="st4" d="M436.57,642.64c5.26-1.08,6.04-1.73,10.43,1.36s14.32,7.63,19,5c5.07-2.84,4.42-7.21,4-13
			c-0.49-6.68-1.51-13.32-2-20c-0.5-6.79-1-15-2-21c-0.66-3.95-6.98-4.29-9-8c-6-11-11.18-8.31-19-13c-5-3-9.35-5.07-14-6
			c10.9-5.75,22.15-1.47,33-1c1.73,0.07,4.19,2.28,5.75,1.52c2.32-1.14,2.26-3.94,2.25-6.52s0.94-6.6,0-9
			c38.51,11.14,80.78,11.1,119-1c0.76,31.91,3.52,63.4-1,95c-2.08,14.55-5.73,30.94-10,45c-1.61,5.29-3.4,9.93-8,13
			c-3.35,2.23-9.99,4.68-14,5c-17.2,1.38-23.98,1.85-41-1c-5.49-0.92-22.57-4.89-25.68-9.52c-2.81-4.19-3.66-9.72-5.32-14.48
			c-2.05-5.88-11.18-12.05-16-16c-11.7-9.58-18.01-17.25-29.71-26.83"/>
	</g>
	<g>
		<path class="st4" d="M19.56,694.92c68.65-17.8,136.25-39.69,202.3-65.5c6.65-2.6,13.55-5.42,18.2-10.83
			c3.84-4.46,5.74-10.23,7.56-15.83c7.52-23.24,15.08-46.6,18.69-70.76c1.63-10.93,2.51-22.19,6.96-32.3
			c4.35-9.87,11.85-18.02,19.93-25.17c17.16-15.18,39.94-27.66,61.8-34.53c-2-3-2.67-8.36-5-11c-10.62-12.04-23.64-20.85-34-33v0
			c-21.1-20.79-42.57-37.25-67-54c-5.75-3.94-14-9-23-12c-4.94-1.65-9-4-10-1c-1.77,5.32-7.68,8.77-13,7c-3-1-5.74-6.28-8-7
			c-1.03-0.33-1.91-0.08-3,1c-2.43,2.41-3.85,8.58-4,11c-0.21,3.5,1.2,4.99,3,8c3.38,5.64,4.9,11.52,6,18s-1.79,12.99-7,17
			c-5.44,4.19-17.32,1.86-23-2c-25-17-28.76-19.64-45-36c-19.92-20.07-41.04-40.15-59-62c-11.36,7.52-24.42,11.91-38,13"/>
	</g>
	<g>
		<path class="st4" d="M273.74,720.9c0.96,11.6,5.54,22.87,12.96,31.83c1.9,2.3,4.05,4.58,4.76,7.48c1.08,4.4-1.45,8.8-3.87,12.62
			c-5.54,8.76-11.07,17.53-16.61,26.29c-1.56,2.47-3.21,5.02-5.72,6.51c-2.35,1.39-5.17,1.68-7.89,1.94
			c-51.07,4.81-102.55,9.61-153.57,4.31c37.13-15.59,72.26-35.96,104.24-60.44c9.62-7.36,19.01-15.13,29.55-21.09
			c10.55-5.96,22.5-10.07,34.59-9.39"/>
	</g>
	<ellipse class="st5" cx="525.77" cy="544.5" rx="49.23" ry="9.5"/>
</g>
<g id="table">
	<g>
		<path class="st6" d="M846.69,596.83l-49.8,187.77c-9.48,13.53-24.56,22.53-41.54,24.12c-63.33,5.94-109.73,6.87-184.72-2
			C481.95,796.23,390.35,771.92,317,721h-1c17.07-2.44,37.39-7.48,65-13c3.57-0.71,6.58-0.08,9,0c4.35,0.14,9.43-0.77,15-1
			c7.64-0.32,15.94-4.77,22-7c15.36-5.66,8.34-18.39,11-28c1.4-5.07,6.28-8.89,4-14c7.14,14.85,30.45,18.81,33,36
			c0.96,6.46,3.31,12.47,8.5,14.88C501,717,525.78,718.97,544,717c13.46-1.45,24.87-1.92,31.48-13.74c2.01-3.6,3.3-12.67,6.52-15.26
			c4.17-3.35,11.68-0.57,17,0c39.49,4.19,82.51,6.81,122,11c7.55,0.8,14,2,21,2c3.31,0,2.54-10.63,5-13c5.27-5.07-0.59-6.86,1-14
			c7.12-32.07,19.78-63.56,25-96c21.96,2.29,45.66,6.18,67.48,9.56C843.89,588.08,845.86,591.39,846.69,596.83z"/>
	</g>
	<g>
		<path class="st6" d="M444.68,583.29c3.62,4.04,7.24,8.07,10.87,12.11c1.32,1.47,3.55,1.84,4.45,3.6c1.17,2.28,0.64,6,0.95,8.54
			c1.34,10.73,3.87,22.65,4.05,33.46c0.01,0.8-1.79,0.57-2.36,1.14c-0.7,0.69-0.69,2.13-1.64,1.86c-2.07-0.59-5.22-0.78-7-2
			c-0.32-0.22,0,0-3-2c-2.73-1.82,0.61-2.57,1-3c3.5-3.82,6.2-9.04,6.75-14.2c0.29-2.74,0.57-5.59-0.42-8.16
			c-1.24-3.24-4.23-5.42-7.01-7.51c-2.78-2.09-7.52-1.75-8.32-5.13c-0.6-2.54,1.37-10.42,1-13c-1-7,1.54-3.04-0.26-4.93"/>
	</g>
</g>
<g id="contorno">
	<ellipse class="st7" cx="524" cy="544.5" rx="62.5" ry="13"/>
	<path class="st7" d="M483.5,705.5c-21-39-22-161-22-161"/>
	<path class="st7" d="M586.5,543.5c0,0,11,113-17,164c0,0-32.96,18-85.48-2"/>
	<path class="st7" d="M368.5,569.5c0,0,34-14,41-23s13.71-13,18.36,0s-12.36,24-12.36,24"/>
	<path class="st7" d="M393.5,639.5c0,0,47,0,52-1s23-22-7-34"/>
	<path class="st7" d="M393.5,639.5c0,0,31,4,35,3"/>
	<path class="st7" d="M383.5,673.5c0,0,38,1,48-2s6-21,6-21"/>
	<path class="st7" d="M426.14,639.5c0,0,34.36,34,47.36,40"/>
	<path class="st7" d="M467.5,643.5c0,0-4.21,10-21.61-4"/>
	<path class="st7" d="M460.5,564.68c0,0-23-5.18-37-1.18"/>
	<path class="st7" d="M437.5,578.5c0,0,10.59-1.07,16.3,8.96c5.7,10.04,8.95,5.97,8.95,5.97"/>
	<path class="st7" d="M25,698.32c0,0,51.5-2.82,165.5-51.82c0,0,55-21,80-32s49-36,49-36c43-15,109.16-6.44,109.16-6.44
		c21.16,8.56,9.84,31.44,9.84,31.44c-15,5-51-2-51-2"/>
	<path class="st7" d="M98.57,809.47c0,0,94.93-49.97,114.93-67.97s37-27,78-24s89-12,89-12s68,3,52-33"/>
	<path class="st7" d="M743.5,688.5l-3,9.82l-161.41-15.15"/>
	<line class="st7" x1="583.5" y1="667.5" x2="727.5" y2="680.5"/>
	<line class="st7" x1="736.5" y1="674.5" x2="818.5" y2="343.5"/>
	<path class="st7" d="M588.5,564.5l169,12c0,0,2-3,4-4s57-229,57-229l10-11h4l-9,11l-80,334"/>
	<path class="st7" d="M756.93,578.47"/>
	<path class="st7" d="M212.5,238.5c31-16,37-2,37-2s25,21,56,36s39,29,39,29c147,171,144.48,230,144.48,230"/>
	<path class="st7" d="M275.5,503.5c0,0,23.1,14.97,105.55,58.48"/>
	<path class="st7" d="M214.5,299.5c0,0,50,27,57,28c6.77,0.97,20.08,4.74,37.22,13.12c1.17,0.57,2.13,1.49,2.76,2.63
		c5.55,10.01,33.7,61.9,57.02,125.43c26,70.82,26.86,69.51,26.86,69.51"/>
	<path class="st7" d="M257.5,229.5c0,0-18,0-3-19"/>
	<path class="st7" d="M274.5,226.5c0,0-7.09-4-14.05,0"/>
	<path class="st7" d="M266.5,231.5c0,0,5-3,12-1c0,0,19,2,5-24c0,0-8-26-7-33"/>
	<path class="st7" d="M250.5,180.5"/>
	<path class="st7" d="M25,293.37c9.5,0.87,40.5-14.87,40.5-14.87c28.33-27.62,16.53-88.87,7.23-122.24
		c-6-21.54-7.66-44.09-4.34-66.2c7.15-47.63,28.26-55.95,73.11-65.56c56-12,96,20,125.98,47.51s25.02,88.49,25.02,88.49"/>
	<path class="st7" d="M131.73,195.29c0,0-4.7,1.79-4.7,5.38s-8.08,7.18-17.05,0.9c-8.97-6.28-17.95-21.54-22.44-38.59
		c-4.49-17.05,9.87-43.08,32.31-24.23c0,0,5.38,4.49,8.08,7.18"/>
	<path class="st7" d="M127.93,183.62c0,0-8.08,0.9-9.87-1.79s-8.97-4.49-11.67-5.38c0,0-8.08-1.79-6.28-18.85"/>
	<path class="st7" d="M106.4,163.88c0,0,8.97-10.77,15.26-8.08"/>
	<path class="st7" d="M101.91,138.75c0,0,17.85-3.12,20.59,20.87"/>
	<path class="st7" d="M127.04,180.93c0,0,0-0.9-0.9-2.69s-2.26-4.34-1.13-7.56"/>
	<path class="st7" d="M284.5,164.5c0,0-6,8-8,9"/>
	<path class="st7" d="M352.5,428.5c0,0-89-101-139-104"/>
	<path class="st7" d="M189.5,328.5c0,0-10,23-8,42"/>
	<path class="st7" d="M185.37,345.47c0,0,22.13,34.03-3.87,37.03S63.7,279.4,63.7,279.4"/>
	<path class="st7" d="M272.5,434.5c0,0,15,95-21,169c0,0-4,9,0,19"/>
	<path class="st7" d="M695.5,816.5c0,0-223,21-385-97"/>
	<path class="st7" d="M641.5,821.5"/>
	<path class="st7" d="M297.5,756.5c-18-23-19-39-19-39"/>
	<ellipse class="st7" cx="736.5" cy="682.95" rx="9" ry="8.55"/>
	<line class="st7" x1="757.5" y1="576.5" x2="727.5" y2="680.5"/>
	<path class="st7" d="M229.5,186.5c0,0,10,4,21,1"/>
	<path class="st7" d="M277.5,178.5c0,0,0.44-1.44,1.99-1.66c1.65-0.23,2.86-1.69,2.94-3.35c0.07-1.32-0.13-2.76-0.93-3.99"/>
	<path class="st7" d="M283.5,169.5c0,0,11,2,9-9"/>
	<path class="st8" d="M219.61,159.53c-1.04-1.09-0.16-1.43,0.85-1.53c1.61-0.15,3.21-0.33,4.8-0.62
		c22.82-4.18,46.79,3.12,46.79,3.12c2.54,6-6.75,4.57-6.75,4.57s-32.8-1.57-45.8-5.57"/>
	<path class="st7" d="M272.5,230.5c0,0-1,10-4,18"/>
	<path class="st7" d="M181.5,286.5c0,0-8,19-26,15c0,0-9-5,3-14c0,0,12.38-12.38,29.66-31.02c5.9-6.37,12.74-11.81,20.35-16
		c1.53-0.84,2.92-1.55,3.99-1.97"/>
	<path class="st7" d="M217.5,262.5c0,0-33,18-36,24"/>
	<path class="st7" d="M221.5,239.5c0,0,5-7,17-1"/>
	<path class="st7" d="M217.5,262.5c0,0,11-11,23-6"/>
	<path class="st7" d="M200.01,260.5"/>
	<path class="st7" d="M203.5,310.5c0,0,19.08,17.34,5.55,22.96c-2.21,0.92-4.73,0.47-6.52-1.11c-1.44-1.26-4.23-3.15-6.03-5.85"/>
	<path class="st7" d="M223.5,304.5c0,0-11,2-14,5"/>
	<path class="st7" d="M209.5,309.5c0,0-1,2,3,4c0,0,6,3,2,11"/>
	<path class="st7" d="M272.5,808.5c4,0,28-47,25-52"/>
	<polyline class="st7" points="832.5,332.5 769.5,584.5 743.84,676.1 	"/>
	<line class="st7" x1="823.5" y1="343.5" x2="818.5" y2="343.5"/>
	<path class="st7" d="M204.03,302.05c0,0-0.53,9.45-5.53,12.45"/>
	<path class="st7" d="M196.5,301.2c0,0,14,1.3,18-1.7"/>
	<path class="st7" d="M189.5,313.5c0,0,6.81-8.04,6.41-12.02"/>
	<path class="st7" d="M193.82,309.5c0,0,4.68,3,5.68,7c0.93,3.73,0.1,6.28-1.03,7.97c-1.57,2.33-4.54,3.21-7.25,2.47
		c-10.4-2.83-13.72-14.44-13.72-14.44s-2-25,7-28c0.11-0.04,0.22-0.07,0.34-0.11c9.22-3,31.66-7.41,31.66-7.41s-10,7.52,0,0.52
		s16-5,16-5"/>
	<path class="st7" d="M275.5,503.5c0,0,45-53,83-60"/>
	<path class="st7" d="M761.49,573.64c-31.77-2.36-74.09-4.67-128.99-6.14"/>
	<path class="st7" d="M842.5,582.5c0,0-19.88-3.94-69.83-7.99"/>
</g>
<g id="humo">
	<path class="st5" d="M525.77,538.94c0,0-9.66-2.98-0.74-8.81c0,0,0,0,0,0s4.28-3.32-8.26-6.2c-12.54-2.88-4.79-6.38-4.79-6.38
		s0,0,0,0s15.56-5.57,3.47-8.82c0,0,0,0,0,0c0,0-23.68,0.22-28.11-3.1c-3.96-2.97-10.48-11.87,4.44-13.32
		c3.25-0.32,6.53,0.07,9.65,1.04c6.12,1.9,19.2,5.05,31.57,2.02c16.89-4.13-11.36-11.37-11.36-11.37c0,0,0,0,0,0
		c0,0-30.24-2.79-29.88-14.3s7.01-13.35,16.16-14.61c9.15-1.25,18.29,0.3,21.24-1.55c2.95-1.84,1.55-4.28-2.95-6.57
		c-4.5-2.29-14.83-6.57,2.73-10.11c0,0,0,0,0,0c0,0-5.9,2.66,8.34,6.64c14.24,3.98,15.42,7.01,15.27,7.82
		c-0.15,0.81,1.25,2.51-7.38,4.5c-8.63,1.99-1.62,3.69-1.62,3.69s25.45,6.34,23.31,11.95c-2.14,5.61-8.85,7.01-17.26,4.28
		c-8.41-2.73-28.25-10.92-29.36-4.79s10.84,7.6,10.84,7.6s30.76,4.79,32.83,11.43c1.71,5.5,2.71,10.64-7.68,16.31
		c-3.75,2.04-7.8,3.47-11.99,4.27c-6.31,1.22-17.71,4.12-15.44,8.92c0,0-0.15,2.36,5.02,4.35c5.16,1.99,4.72,3.47,4.72,3.47
		s0.66,2.29-10.92,7.45c0,0,0,0,0,0C527.61,534.78,523.93,535.35,525.77,538.94C525.77,538.94,525.77,538.94,525.77,538.94z"/>
</g>
</svg>
